<svg xmlns="http://www.w3.org/2000/svg" height="20px" viewBox="0 -960 960 960" width="20px" fill="#e3e3e3"><path d="M266-110v-118h118v118H266ZM110-732v-118h118v118H110Zm156 0v-118h118v118H266Zm155 622v-118h118v118H421Zm0-622v-118h118v118H421Zm156 0v-118h118v118H577Zm0 622v-118h118v118H577Zm155-622v-118h118v118H732ZM110-110v-118h118v118H110Zm0-156v-118h118v118H110Zm0-155v-118h118v118H110Zm0-156v-118h118v118H110Zm622 467v-118h118v118H732Zm0-156v-118h118v118H732Zm0-155v-118h118v118H732Zm0-156v-118h118v118H732Z"/></svg>